<!--?xml version="1.0" standalone="no"?-->
              <svg id="sw-js-blob-svg" viewBox="0 0 100 100" xmlns="http://www.w3.org/2000/svg" version="1.1">
                    <defs> 
                        <linearGradient id="sw-gradient" x1="0" x2="1" y1="1" y2="0">
                            <stop id="stop1" stop-color="rgba(210.29, 210.209, 210.171, 1)" offset="0%"></stop>
                            <stop id="stop2" stop-color="rgba(244.441, 244.441, 244.441, 1)" offset="100%"></stop>
                        </linearGradient>
                    </defs>
                <path fill="url(#sw-gradient)" d="M23.9,-36C30.8,-32.7,36.2,-25.8,37.5,-18.4C38.9,-11,36.3,-3.1,35.2,5.1C34.1,13.3,34.5,21.8,31.2,28.8C27.9,35.7,20.8,41.2,13.3,41.8C5.8,42.3,-2,38,-9,34.3C-15.9,30.5,-22,27.4,-28.5,23C-35.1,18.6,-42.1,12.8,-43.5,6C-45,-0.9,-40.8,-8.8,-36.8,-16.5C-32.9,-24.3,-29.1,-31.8,-23,-35.5C-16.9,-39.1,-8.4,-38.9,0,-38.9C8.5,-38.9,17,-39.3,23.9,-36Z" width="100%" height="100%" transform="translate(50 50)" stroke-width="0" style="transition: 0.3s;" stroke="url(#sw-gradient)"></path>
              </svg>